<svg width="343" height="342" xmlns="http://www.w3.org/2000/svg" xmlns:xlink="http://www.w3.org/1999/xlink" xml:space="preserve" overflow="hidden"><g transform="translate(-497 -1004)"><g><g><g><g><path d="M593.906 1118.67C593.906 1122.59 590.726 1125.77 586.802 1125.77 582.879 1125.77 579.698 1122.59 579.698 1118.67 579.698 1114.74 582.879 1111.56 586.802 1111.56 590.726 1111.56 593.906 1114.74 593.906 1118.67Z" fill="#2F5597" fill-rule="nonzero" fill-opacity="1"/><path d="M593.906 1147.08C593.906 1151.01 590.726 1154.19 586.802 1154.19 582.879 1154.19 579.698 1151.01 579.698 1147.08 579.698 1143.16 582.879 1139.98 586.802 1139.98 590.726 1139.98 593.906 1143.16 593.906 1147.08Z" fill="#2F5597" fill-rule="nonzero" fill-opacity="1"/><path d="M579.698 1132.88C579.698 1136.8 576.517 1139.98 572.594 1139.98 568.67 1139.98 565.49 1136.8 565.49 1132.88 565.49 1128.95 568.67 1125.77 572.594 1125.77 576.517 1125.77 579.698 1128.95 579.698 1132.88Z" fill="#2F5597" fill-rule="nonzero" fill-opacity="1"/><path d="M608.115 1132.88C608.115 1136.8 604.934 1139.98 601.01 1139.98 597.087 1139.98 593.906 1136.8 593.906 1132.88 593.906 1128.95 597.087 1125.77 601.01 1125.77 604.934 1125.77 608.115 1128.95 608.115 1132.88Z" fill="#2F5597" fill-rule="nonzero" fill-opacity="1"/><path d="M693.365 1104.46C693.365 1108.38 690.184 1111.56 686.26 1111.56 682.337 1111.56 679.156 1108.38 679.156 1104.46 679.156 1100.53 682.337 1097.35 686.26 1097.35 690.184 1097.35 693.365 1100.53 693.365 1104.46Z" fill="#2F5597" fill-rule="nonzero" fill-opacity="1"/><path d="M693.365 1132.88C693.365 1136.8 690.184 1139.98 686.26 1139.98 682.337 1139.98 679.156 1136.8 679.156 1132.88 679.156 1128.95 682.337 1125.77 686.26 1125.77 690.184 1125.77 693.365 1128.95 693.365 1132.88Z" fill="#2F5597" fill-rule="nonzero" fill-opacity="1"/><path d="M679.156 1118.67C679.156 1122.59 675.976 1125.77 672.052 1125.77 668.129 1125.77 664.948 1122.59 664.948 1118.67 664.948 1114.74 668.129 1111.56 672.052 1111.56 675.976 1111.56 679.156 1114.74 679.156 1118.67Z" fill="#2F5597" fill-rule="nonzero" fill-opacity="1"/><path d="M707.573 1118.67C707.573 1122.59 704.392 1125.77 700.469 1125.77 696.545 1125.77 693.365 1122.59 693.365 1118.67 693.365 1114.74 696.545 1111.56 700.469 1111.56 704.392 1111.56 707.573 1114.74 707.573 1118.67Z" fill="#2F5597" fill-rule="nonzero" fill-opacity="1"/><path d="M789.271 1164.84 767.958 1186.16 739.542 1186.16 739.542 1264.3 767.958 1264.3 789.271 1285.61 810.583 1285.61 810.583 1164.84Z" fill="#2F5597" fill-rule="nonzero" fill-opacity="1"/><path d="M686.26 1150.64C668.5 1150.64 654.292 1136.43 654.292 1118.67 654.292 1100.91 668.5 1086.7 686.26 1086.7 704.021 1086.7 718.229 1100.91 718.229 1118.67 718.229 1136.43 704.021 1150.64 686.26 1150.64ZM696.917 1264.3C693.009 1264.3 689.812 1261.11 689.812 1257.2 689.812 1253.29 693.009 1250.09 696.917 1250.09 700.824 1250.09 704.021 1253.29 704.021 1257.2 704.021 1261.11 700.824 1264.3 696.917 1264.3ZM629.427 1164.84C634.045 1158.45 637.597 1151.35 639.018 1143.18 643.635 1152.06 651.095 1159.52 659.62 1164.84L629.427 1164.84ZM586.802 1164.84C569.042 1164.84 554.833 1150.64 554.833 1132.88 554.833 1115.11 569.042 1100.91 586.802 1100.91 604.562 1100.91 618.771 1115.11 618.771 1132.88 618.771 1150.64 604.562 1164.84 586.802 1164.84ZM712.546 1164.84C728.53 1155.61 739.542 1138.56 739.542 1118.67 739.542 1089.18 715.743 1065.39 686.26 1065.39 660.33 1065.39 639.018 1083.86 634.045 1108.37 625.165 1091.32 607.404 1079.59 586.802 1079.59 557.32 1079.59 533.521 1103.39 533.521 1132.88 533.521 1150.28 542.046 1165.55 554.833 1175.5L554.833 1186.16 547.729 1186.16 540.625 1179.05 526.417 1179.05 526.417 1214.57 540.625 1214.57 547.729 1207.47 554.833 1207.47 554.833 1271.41C554.833 1279.22 561.227 1285.61 569.042 1285.61L711.125 1285.61C718.94 1285.61 725.333 1279.22 725.333 1271.41L725.333 1179.05C725.333 1171.59 719.65 1165.55 712.546 1164.84Z" fill="#2F5597" fill-rule="nonzero" fill-opacity="1"/></g></g></g></g></g></svg>